<svg xmlns="http://www.w3.org/2000/svg" viewBox="0 0 512 512" width="512" height="512">
  <defs>
    <linearGradient id="grad1" x1="0%" y1="0%" x2="100%" y2="100%">
      <stop offset="0%" style="stop-color:#6e44ff;stop-opacity:1" />
      <stop offset="100%" style="stop-color:#00f0ff;stop-opacity:1" />
    </linearGradient>
  </defs>
  <!-- Rounded Square Background -->
  <rect width="512" height="512" rx="128" fill="#040815"/>
  <!-- Glowing circle inside -->
  <circle cx="256" cy="256" r="180" fill="url(#grad1)" opacity="0.15"/>
  <!-- Elegant headset / soundwave path -->
  <path d="M256 120c-75.1 0-136 60.9-136 136v96c0 26.5 21.5 48 48 48h32c8.8 0 16-7.2 16-16v-80c0-8.8-7.2-16-16-16h-32v-32c0-48.5 39.5-88 88-88s88 39.5 88 88v32h-32c-8.8 0-16 7.2-16 16v80c0 8.8 7.2 16 16 16h32c26.5 0 48-21.5 48-48v-96c0-75.1-60.9-136-136-136z" fill="url(#grad1)"/>
  <!-- Soundwaves in the center -->
  <rect x="244" y="220" width="8" height="72" rx="4" fill="#ffffff" />
  <rect x="228" y="240" width="8" height="32" rx="4" fill="#ffffff" opacity="0.8" />
  <rect x="212" y="250" width="8" height="12" rx="4" fill="#ffffff" opacity="0.6" />
  <rect x="260" y="240" width="8" height="32" rx="4" fill="#ffffff" opacity="0.8" />
  <rect x="276" y="250" width="8" height="12" rx="4" fill="#ffffff" opacity="0.6" />
</svg>
